<svg width="287" height="15" viewBox="0 0 287 15" fill="none" xmlns="http://www.w3.org/2000/svg">
<path d="M0.409091 13H7.52273V11.75H1.81818V7.79545H7.06818V6.54545H1.81818V2.61364H7.43182V1.36364H0.409091V13ZM11.1307 7.75C11.1307 6.22727 12.0739 5.36364 13.358 5.36364C14.6023 5.36364 15.358 6.17614 15.358 7.54545V13H16.6989V7.45455C16.6989 5.22727 15.5114 4.15909 13.7443 4.15909C12.4261 4.15909 11.608 4.75 11.1989 5.63636H11.0852V4.27273H9.78977V13H11.1307V7.75ZM22.9446 4.27273H21.081V2.18182H19.7401V4.27273H18.4219V5.40909H19.7401V10.8636C19.7401 12.3864 20.9673 13.1136 22.1037 13.1136C22.6037 13.1136 22.9219 13.0227 23.1037 12.9545L22.831 11.75C22.7173 11.7727 22.5355 11.8182 22.2401 11.8182C21.6491 11.8182 21.081 11.6364 21.081 10.5V5.40909H22.9446V4.27273ZM28.527 13.1818C30.2997 13.1818 31.5952 12.2955 32.0043 10.9773L30.7088 10.6136C30.3679 11.5227 29.5781 11.9773 28.527 11.9773C26.9531 11.9773 25.8679 10.9602 25.8054 9.09091H32.1406V8.52273C32.1406 5.27273 30.2088 4.15909 28.3906 4.15909C26.027 4.15909 24.4588 6.02273 24.4588 8.70455C24.4588 11.3864 26.0043 13.1818 28.527 13.1818ZM25.8054 7.93182C25.8963 6.57386 26.8565 5.36364 28.3906 5.36364C29.8452 5.36364 30.777 6.45455 30.777 7.93182H25.8054ZM34.1804 13H35.5213V7.47727C35.5213 6.29545 36.4531 5.43182 37.7259 5.43182C38.0838 5.43182 38.4531 5.5 38.544 5.52273V4.15909C38.3906 4.14773 38.0384 4.13636 37.8395 4.13636C36.794 4.13636 35.8849 4.72727 35.5668 5.59091H35.4759V4.27273H34.1804V13ZM45.9744 7.75C45.9744 6.22727 46.9176 5.36364 48.2017 5.36364C49.446 5.36364 50.2017 6.17614 50.2017 7.54545V13H51.5426V7.45455C51.5426 5.22727 50.3551 4.15909 48.5881 4.15909C47.2699 4.15909 46.4517 4.75 46.0426 5.63636H45.929V4.27273H44.6335V13H45.9744V7.75ZM59.4929 9.43182C59.4929 11.0682 58.2429 11.8182 57.2429 11.8182C56.1293 11.8182 55.3338 11 55.3338 9.72727V4.27273H53.9929V9.81818C53.9929 12.0455 55.1747 13.1136 56.8111 13.1136C58.1293 13.1136 58.9929 12.4091 59.402 11.5227H59.4929V13H60.8338V4.27273H59.4929V9.43182ZM63.2898 13H64.6307V7.54545C64.6307 6.26705 65.5625 5.36364 66.608 5.36364C67.625 5.36364 68.3352 6.02841 68.3352 7.02273V13H69.6989V7.31818C69.6989 6.19318 70.4034 5.36364 71.6307 5.36364C72.5852 5.36364 73.4034 5.86932 73.4034 7.15909V13H74.7443V7.15909C74.7443 5.10795 73.642 4.15909 72.0852 4.15909C70.8352 4.15909 69.9205 4.73295 69.4716 5.63636H69.3807C68.9489 4.70455 68.1875 4.15909 67.0398 4.15909C65.9034 4.15909 65.0625 4.70455 64.6989 5.63636H64.5852V4.27273H63.2898V13ZM77.3778 13H78.6733V11.6591H78.8324C79.1278 12.1364 79.696 13.1818 81.3778 13.1818C83.5597 13.1818 85.0824 11.4318 85.0824 8.65909C85.0824 5.90909 83.5597 4.15909 81.3551 4.15909C79.6506 4.15909 79.1278 5.20455 78.8324 5.65909H78.7188V1.36364H77.3778V13ZM78.696 8.63636C78.696 6.68182 79.5597 5.36364 81.196 5.36364C82.9006 5.36364 83.7415 6.79545 83.7415 8.63636C83.7415 10.5 82.8778 11.9773 81.196 11.9773C79.5824 11.9773 78.696 10.6136 78.696 8.63636ZM90.7926 13.1818C92.5653 13.1818 93.8608 12.2955 94.2699 10.9773L92.9744 10.6136C92.6335 11.5227 91.8438 11.9773 90.7926 11.9773C89.2188 11.9773 88.1335 10.9602 88.071 9.09091H94.4062V8.52273C94.4062 5.27273 92.4744 4.15909 90.6562 4.15909C88.2926 4.15909 86.7244 6.02273 86.7244 8.70455C86.7244 11.3864 88.2699 13.1818 90.7926 13.1818ZM88.071 7.93182C88.1619 6.57386 89.1222 5.36364 90.6562 5.36364C92.1108 5.36364 93.0426 6.45455 93.0426 7.93182H88.071ZM96.446 13H97.7869V7.47727C97.7869 6.29545 98.7188 5.43182 99.9915 5.43182C100.349 5.43182 100.719 5.5 100.81 5.52273V4.15909C100.656 4.14773 100.304 4.13636 100.105 4.13636C99.0597 4.13636 98.1506 4.72727 97.8324 5.59091H97.7415V4.27273H96.446V13ZM110.445 13.1818C112.808 13.1818 114.399 11.3864 114.399 8.68182C114.399 5.95455 112.808 4.15909 110.445 4.15909C108.081 4.15909 106.49 5.95455 106.49 8.68182C106.49 11.3864 108.081 13.1818 110.445 13.1818ZM110.445 11.9773C108.649 11.9773 107.831 10.4318 107.831 8.68182C107.831 6.93182 108.649 5.36364 110.445 5.36364C112.24 5.36364 113.058 6.93182 113.058 8.68182C113.058 10.4318 112.24 11.9773 110.445 11.9773ZM120.332 4.27273H118.378V3.38636C118.378 2.52273 118.741 2.06818 119.628 2.06818C120.014 2.06818 120.241 2.15909 120.378 2.20455L120.764 1.04545C120.56 0.954545 120.151 0.818181 119.491 0.818181C118.241 0.818181 117.037 1.56818 117.037 3.06818V4.27273H115.628V5.40909H117.037V13H118.378V5.40909H120.332V4.27273ZM130.598 4.27273H128.643V3.38636C128.643 2.52273 129.007 2.06818 129.893 2.06818C130.28 2.06818 130.507 2.15909 130.643 2.20455L131.03 1.04545C130.825 0.954545 130.416 0.818181 129.757 0.818181C128.507 0.818181 127.303 1.56818 127.303 3.06818V4.27273H125.893V5.40909H127.303V13H128.643V5.40909H130.598V4.27273ZM135.663 13.1818C138.027 13.1818 139.618 11.3864 139.618 8.68182C139.618 5.95455 138.027 4.15909 135.663 4.15909C133.3 4.15909 131.709 5.95455 131.709 8.68182C131.709 11.3864 133.3 13.1818 135.663 13.1818ZM135.663 11.9773C133.868 11.9773 133.05 10.4318 133.05 8.68182C133.05 6.93182 133.868 5.36364 135.663 5.36364C137.459 5.36364 138.277 6.93182 138.277 8.68182C138.277 10.4318 137.459 11.9773 135.663 11.9773ZM143.006 1.36364H141.665V13H143.006V1.36364ZM146.803 1.36364H145.462V13H146.803V1.36364ZM152.804 13.1818C155.168 13.1818 156.759 11.3864 156.759 8.68182C156.759 5.95455 155.168 4.15909 152.804 4.15909C150.44 4.15909 148.849 5.95455 148.849 8.68182C148.849 11.3864 150.44 13.1818 152.804 13.1818ZM152.804 11.9773C151.009 11.9773 150.19 10.4318 150.19 8.68182C150.19 6.93182 151.009 5.36364 152.804 5.36364C154.599 5.36364 155.418 6.93182 155.418 8.68182C155.418 10.4318 154.599 11.9773 152.804 11.9773ZM160.486 13H161.804L163.713 6.29545H163.849L165.759 13H167.077L169.736 4.27273H168.327L166.44 10.9318H166.349L164.509 4.27273H163.077L161.213 10.9545H161.122L159.236 4.27273H157.827L160.486 13ZM174.871 13.1818C176.643 13.1818 177.939 12.2955 178.348 10.9773L177.053 10.6136C176.712 11.5227 175.922 11.9773 174.871 11.9773C173.297 11.9773 172.212 10.9602 172.149 9.09091H178.484V8.52273C178.484 5.27273 176.553 4.15909 174.734 4.15909C172.371 4.15909 170.803 6.02273 170.803 8.70455C170.803 11.3864 172.348 13.1818 174.871 13.1818ZM172.149 7.93182C172.24 6.57386 173.2 5.36364 174.734 5.36364C176.189 5.36364 177.121 6.45455 177.121 7.93182H172.149ZM180.524 13H181.865V7.47727C181.865 6.29545 182.797 5.43182 184.07 5.43182C184.428 5.43182 184.797 5.5 184.888 5.52273V4.15909C184.734 4.14773 184.382 4.13636 184.183 4.13636C183.138 4.13636 182.229 4.72727 181.911 5.59091H181.82V4.27273H180.524V13ZM192.659 6.22727C192.239 4.98864 191.295 4.15909 189.568 4.15909C187.727 4.15909 186.364 5.20455 186.364 6.68182C186.364 7.88636 187.08 8.69318 188.682 9.06818L190.136 9.40909C191.017 9.61364 191.432 10.0341 191.432 10.6364C191.432 11.3864 190.636 12 189.386 12C188.29 12 187.602 11.5284 187.364 10.5909L186.091 10.9091C186.403 12.392 187.625 13.1818 189.409 13.1818C191.438 13.1818 192.818 12.0739 192.818 10.5682C192.818 9.35227 192.057 8.58523 190.5 8.20455L189.205 7.88636C188.17 7.63068 187.705 7.28409 187.705 6.61364C187.705 5.86364 188.5 5.31818 189.568 5.31818C190.739 5.31818 191.222 5.96591 191.455 6.56818L192.659 6.22727ZM198.95 0.818181H197.723L193.973 14.75H195.2L198.95 0.818181ZM206.722 6.22727C206.301 4.98864 205.358 4.15909 203.631 4.15909C201.79 4.15909 200.426 5.20455 200.426 6.68182C200.426 7.88636 201.142 8.69318 202.744 9.06818L204.199 9.40909C205.08 9.61364 205.494 10.0341 205.494 10.6364C205.494 11.3864 204.699 12 203.449 12C202.352 12 201.665 11.5284 201.426 10.5909L200.153 10.9091C200.466 12.392 201.688 13.1818 203.472 13.1818C205.5 13.1818 206.881 12.0739 206.881 10.5682C206.881 9.35227 206.119 8.58523 204.562 8.20455L203.267 7.88636C202.233 7.63068 201.767 7.28409 201.767 6.61364C201.767 5.86364 202.562 5.31818 203.631 5.31818C204.801 5.31818 205.284 5.96591 205.517 6.56818L206.722 6.22727ZM214.399 9.43182C214.399 11.0682 213.149 11.8182 212.149 11.8182C211.036 11.8182 210.24 11 210.24 9.72727V4.27273H208.899V9.81818C208.899 12.0455 210.081 13.1136 211.717 13.1136C213.036 13.1136 213.899 12.4091 214.308 11.5227H214.399V13H215.74V4.27273H214.399V9.43182ZM218.378 13H219.673V11.6591H219.832C220.128 12.1364 220.696 13.1818 222.378 13.1818C224.56 13.1818 226.082 11.4318 226.082 8.65909C226.082 5.90909 224.56 4.15909 222.355 4.15909C220.651 4.15909 220.128 5.20455 219.832 5.65909H219.719V1.36364H218.378V13ZM219.696 8.63636C219.696 6.68182 220.56 5.36364 222.196 5.36364C223.901 5.36364 224.741 6.79545 224.741 8.63636C224.741 10.5 223.878 11.9773 222.196 11.9773C220.582 11.9773 219.696 10.6136 219.696 8.63636ZM234.315 6.22727C233.895 4.98864 232.952 4.15909 231.224 4.15909C229.384 4.15909 228.02 5.20455 228.02 6.68182C228.02 7.88636 228.736 8.69318 230.338 9.06818L231.793 9.40909C232.673 9.61364 233.088 10.0341 233.088 10.6364C233.088 11.3864 232.293 12 231.043 12C229.946 12 229.259 11.5284 229.02 10.5909L227.747 10.9091C228.06 12.392 229.281 13.1818 231.065 13.1818C233.094 13.1818 234.474 12.0739 234.474 10.5682C234.474 9.35227 233.713 8.58523 232.156 8.20455L230.861 7.88636C229.827 7.63068 229.361 7.28409 229.361 6.61364C229.361 5.86364 230.156 5.31818 231.224 5.31818C232.395 5.31818 232.878 5.96591 233.111 6.56818L234.315 6.22727ZM240.038 13.1818C241.97 13.1818 243.243 12 243.47 10.4545H242.129C241.879 11.4091 241.084 11.9773 240.038 11.9773C238.447 11.9773 237.425 10.6591 237.425 8.63636C237.425 6.65909 238.47 5.36364 240.038 5.36364C241.22 5.36364 241.925 6.09091 242.129 6.88636H243.47C243.243 5.25 241.857 4.15909 240.016 4.15909C237.652 4.15909 236.084 6.02273 236.084 8.68182C236.084 11.2955 237.584 13.1818 240.038 13.1818ZM245.43 13H246.771V7.47727C246.771 6.29545 247.703 5.43182 248.976 5.43182C249.334 5.43182 249.703 5.5 249.794 5.52273V4.15909C249.641 4.14773 249.288 4.13636 249.089 4.13636C248.044 4.13636 247.135 4.72727 246.817 5.59091H246.726V4.27273H245.43V13ZM251.384 13H252.724V4.27273H251.384V13ZM252.065 2.81818C252.588 2.81818 253.02 2.40909 253.02 1.90909C253.02 1.40909 252.588 1 252.065 1C251.543 1 251.111 1.40909 251.111 1.90909C251.111 2.40909 251.543 2.81818 252.065 2.81818ZM255.362 13H256.658V11.6591H256.817C257.112 12.1364 257.68 13.1818 259.362 13.1818C261.544 13.1818 263.067 11.4318 263.067 8.65909C263.067 5.90909 261.544 4.15909 259.339 4.15909C257.635 4.15909 257.112 5.20455 256.817 5.65909H256.703V1.36364H255.362V13ZM256.68 8.63636C256.68 6.68182 257.544 5.36364 259.18 5.36364C260.885 5.36364 261.726 6.79545 261.726 8.63636C261.726 10.5 260.862 11.9773 259.18 11.9773C257.567 11.9773 256.68 10.6136 256.68 8.63636ZM268.777 13.1818C270.55 13.1818 271.845 12.2955 272.254 10.9773L270.959 10.6136C270.618 11.5227 269.828 11.9773 268.777 11.9773C267.203 11.9773 266.118 10.9602 266.055 9.09091H272.391V8.52273C272.391 5.27273 270.459 4.15909 268.641 4.15909C266.277 4.15909 264.709 6.02273 264.709 8.70455C264.709 11.3864 266.254 13.1818 268.777 13.1818ZM266.055 7.93182C266.146 6.57386 267.107 5.36364 268.641 5.36364C270.095 5.36364 271.027 6.45455 271.027 7.93182H266.055ZM274.43 13H275.771V7.47727C275.771 6.29545 276.703 5.43182 277.976 5.43182C278.334 5.43182 278.703 5.5 278.794 5.52273V4.15909C278.641 4.14773 278.288 4.13636 278.089 4.13636C277.044 4.13636 276.135 4.72727 275.817 5.59091H275.726V4.27273H274.43V13ZM286.565 6.22727C286.145 4.98864 285.202 4.15909 283.474 4.15909C281.634 4.15909 280.27 5.20455 280.27 6.68182C280.27 7.88636 280.986 8.69318 282.588 9.06818L284.043 9.40909C284.923 9.61364 285.338 10.0341 285.338 10.6364C285.338 11.3864 284.543 12 283.293 12C282.196 12 281.509 11.5284 281.27 10.5909L279.997 10.9091C280.31 12.392 281.531 13.1818 283.315 13.1818C285.344 13.1818 286.724 12.0739 286.724 10.5682C286.724 9.35227 285.963 8.58523 284.406 8.20455L283.111 7.88636C282.077 7.63068 281.611 7.28409 281.611 6.61364C281.611 5.86364 282.406 5.31818 283.474 5.31818C284.645 5.31818 285.128 5.96591 285.361 6.56818L286.565 6.22727Z" fill="#999CA0"/>
</svg>
