<svg width="392" height="336" viewBox="0 0 392 336" fill="none" xmlns="http://www.w3.org/2000/svg">
<rect x="2" y="2" width="388" height="332" rx="18" fill="#1A1B1C" stroke="url(#paint0_linear_179_1118)" stroke-width="4"/>
<path d="M0 165H392V316C392 327.046 383.046 336 372 336H20C8.9543 336 0 327.046 0 316V165Z" fill="#5A27E7"/>
<path d="M96.4446 193.091L100.386 199.504V204H101.707V199.504L105.649 193.091H104.136L101.111 198.183H100.983L97.9573 193.091H96.4446ZM116.049 198.545C116.049 195.094 114.025 192.942 111.234 192.942C108.443 192.942 106.419 195.094 106.419 198.545C106.419 201.997 108.443 204.149 111.234 204.149C114.025 204.149 116.049 201.997 116.049 198.545ZM114.771 198.545C114.771 201.379 113.216 202.913 111.234 202.913C109.253 202.913 107.697 201.379 107.697 198.545C107.697 195.712 109.253 194.178 111.234 194.178C113.216 194.178 114.771 195.712 114.771 198.545ZM125.43 193.091V200.207C125.43 201.805 124.333 202.956 122.511 202.956C120.689 202.956 119.592 201.805 119.592 200.207V193.091H118.271V200.314C118.271 202.551 119.943 204.192 122.511 204.192C125.078 204.192 126.751 202.551 126.751 200.314V193.091H125.43ZM142.386 196.5C141.981 194.263 140.191 192.942 137.997 192.942C135.206 192.942 133.182 195.094 133.182 198.545C133.182 201.997 135.206 204.149 137.997 204.149C140.191 204.149 141.981 202.828 142.386 200.591H141.065C140.745 202.104 139.446 202.913 137.997 202.913C136.015 202.913 134.46 201.379 134.46 198.545C134.46 195.712 136.015 194.178 137.997 194.178C139.446 194.178 140.745 194.987 141.065 196.5H142.386ZM144.968 204L146.065 200.911H150.476L151.573 204H152.958L148.953 193.091H147.589L143.583 204H144.968ZM146.481 199.739L148.228 194.817H148.313L150.061 199.739H146.481ZM163.308 193.091H162.008V201.678H161.902L155.936 193.091H154.657V204H155.978V195.435H156.085L162.03 204H163.308V193.091ZM177.628 196.5H178.991C178.586 194.391 176.818 192.942 174.517 192.942C171.72 192.942 169.744 195.094 169.744 198.545C169.744 201.997 171.704 204.149 174.602 204.149C177.201 204.149 179.055 202.418 179.055 199.717V198.545H174.9V199.717H177.777C177.739 201.678 176.45 202.913 174.602 202.913C172.578 202.913 171.022 201.379 171.022 198.545C171.022 195.712 172.578 194.178 174.517 194.178C176.093 194.178 177.164 195.067 177.628 196.5ZM181.318 204H187.987V202.828H182.639V199.121H187.561V197.949H182.639V194.263H187.901V193.091H181.318V204ZM198.933 193.091H197.633V201.678H197.527L191.561 193.091H190.282V204H191.603V195.435H191.71L197.655 204H198.933V193.091ZM201.576 204H208.245V202.828H202.897V199.121H207.819V197.949H202.897V194.263H208.16V193.091H201.576V204ZM210.541 204H211.862V199.739H214.249C214.345 199.739 214.435 199.739 214.526 199.733L216.827 204H218.361L215.895 199.494C217.285 199.02 217.935 197.885 217.935 196.436C217.935 194.508 216.784 193.091 214.227 193.091H210.541V204ZM211.862 198.545V194.263H214.185C215.953 194.263 216.635 195.126 216.635 196.436C216.635 197.746 215.953 198.545 214.206 198.545H211.862ZM220.583 204L221.681 200.911H226.091L227.189 204H228.573L224.568 193.091H223.204L219.198 204H220.583ZM222.096 199.739L223.843 194.817H223.929L225.676 199.739H222.096ZM228.402 194.263H231.832V204H233.153V194.263H236.583V193.091H228.402V194.263ZM238.622 204H245.291V202.828H239.943V199.121H244.865V197.949H239.943V194.263H245.206V193.091H238.622V204ZM258.965 193.091V200.207C258.965 201.805 257.868 202.956 256.046 202.956C254.224 202.956 253.127 201.805 253.127 200.207V193.091H251.806V200.314C251.806 202.551 253.478 204.192 256.046 204.192C258.613 204.192 260.286 202.551 260.286 200.314V193.091H258.965ZM262.924 204H264.245V200.016H266.631C269.172 200.016 270.318 198.471 270.318 196.543C270.318 194.614 269.172 193.091 266.61 193.091H262.924V204ZM264.245 198.844V194.263H266.568C268.341 194.263 269.018 195.232 269.018 196.543C269.018 197.853 268.341 198.844 266.589 198.844H264.245ZM276.068 194.263H279.498V204H280.819V194.263H284.25V193.091H276.068V194.263ZM295.039 198.545C295.039 195.094 293.015 192.942 290.223 192.942C287.432 192.942 285.408 195.094 285.408 198.545C285.408 201.997 287.432 204.149 290.223 204.149C293.015 204.149 295.039 201.997 295.039 198.545ZM293.76 198.545C293.76 201.379 292.205 202.913 290.223 202.913C288.242 202.913 286.686 201.379 286.686 198.545C286.686 195.712 288.242 194.178 290.223 194.178C292.205 194.178 293.76 195.712 293.76 198.545Z" fill="white"/>
<path d="M137.665 267.091H141.437L141.468 263.4C148.388 262.872 152.399 259.197 152.415 253.652C152.399 248.202 148.292 245.31 142.603 244.032L141.66 243.808L141.724 235.818C143.85 236.313 145.144 237.672 145.336 239.685H151.967C151.888 234.396 147.94 230.608 141.788 229.937L141.82 226.182H138.049L138.017 229.905C131.769 230.512 127.358 234.284 127.39 239.733C127.374 244.559 130.778 247.324 136.307 248.65L137.841 249.033L137.761 257.487C135.156 256.991 133.399 255.393 133.223 252.725H126.527C126.687 259.181 130.922 262.792 137.697 263.384L137.665 267.091ZM141.532 257.487L141.596 250.024C144.073 250.807 145.416 251.814 145.432 253.636C145.416 255.569 143.945 257.007 141.532 257.487ZM137.889 242.833C135.891 242.146 134.453 241.107 134.485 239.27C134.485 237.56 135.7 236.233 137.953 235.77L137.889 242.833ZM180.124 263.719C188.354 263.719 193.324 257.455 193.34 246.668C193.356 235.962 188.322 229.825 180.124 229.825C171.911 229.825 166.925 235.946 166.909 246.668C166.877 257.423 171.879 263.703 180.124 263.719ZM180.124 257.982C176.369 257.982 173.94 254.211 173.956 246.668C173.972 239.238 176.385 235.498 180.124 235.498C183.848 235.498 186.277 239.238 186.277 246.668C186.293 254.211 183.864 257.982 180.124 257.982ZM200.954 263.415C203 263.415 204.774 261.706 204.79 259.58C204.774 257.487 203 255.777 200.954 255.777C198.845 255.777 197.103 257.487 197.119 259.58C197.103 261.706 198.845 263.415 200.954 263.415ZM221.785 263.719C230.014 263.719 234.984 257.455 235 246.668C235.016 235.962 229.982 229.825 221.785 229.825C213.571 229.825 208.585 235.946 208.569 246.668C208.537 257.423 213.539 263.703 221.785 263.719ZM221.785 257.982C218.029 257.982 215.6 254.211 215.616 246.668C215.632 239.238 218.045 235.498 221.785 235.498C225.508 235.498 227.937 239.238 227.937 246.668C227.953 254.211 225.524 257.982 221.785 257.982ZM252.766 263.719C260.996 263.719 265.966 257.455 265.982 246.668C265.998 235.962 260.964 229.825 252.766 229.825C244.552 229.825 239.566 235.946 239.55 246.668C239.518 257.423 244.52 263.703 252.766 263.719ZM252.766 257.982C249.011 257.982 246.582 254.211 246.598 246.668C246.614 239.238 249.027 235.498 252.766 235.498C256.489 235.498 258.918 239.238 258.918 246.668C258.934 254.211 256.505 257.982 252.766 257.982Z" fill="white"/>
<path d="M137.651 306.114H139.746V298.905H139.924C140.385 299.651 141.273 301.284 143.901 301.284C147.31 301.284 149.689 298.55 149.689 294.217C149.689 289.92 147.31 287.186 143.866 287.186C141.202 287.186 140.385 288.82 139.924 289.53H139.675V287.364H137.651V306.114ZM139.711 294.182C139.711 291.128 141.06 289.068 143.617 289.068C146.28 289.068 147.594 291.305 147.594 294.182C147.594 297.094 146.245 299.402 143.617 299.402C141.096 299.402 139.711 297.271 139.711 294.182ZM158.603 301.284C161.373 301.284 163.397 299.899 164.036 297.839L162.012 297.271C161.479 298.692 160.245 299.402 158.603 299.402C156.144 299.402 154.448 297.813 154.35 294.892H164.249V294.004C164.249 288.926 161.231 287.186 158.39 287.186C154.696 287.186 152.246 290.098 152.246 294.288C152.246 298.479 154.661 301.284 158.603 301.284ZM154.35 293.081C154.492 290.959 155.993 289.068 158.39 289.068C160.662 289.068 162.118 290.773 162.118 293.081H154.35ZM167.436 301H169.531V292.371C169.531 290.524 170.987 289.175 172.976 289.175C173.535 289.175 174.112 289.281 174.254 289.317V287.186C174.015 287.168 173.464 287.151 173.153 287.151C171.52 287.151 170.1 288.074 169.602 289.423H169.46V287.364H167.436V301ZM183.769 301H185.864V292.477C185.864 290.48 187.32 289.068 188.954 289.068C190.543 289.068 191.653 290.107 191.653 291.661V301H193.783V292.122C193.783 290.364 194.884 289.068 196.802 289.068C198.293 289.068 199.572 289.858 199.572 291.874V301H201.667V291.874C201.667 288.669 199.945 287.186 197.512 287.186C195.559 287.186 194.13 288.083 193.428 289.494H193.286C192.612 288.038 191.422 287.186 189.629 287.186C187.853 287.186 186.539 288.038 185.971 289.494H185.793V287.364H183.769V301ZM211.037 301.284C214.731 301.284 217.216 298.479 217.216 294.253C217.216 289.991 214.731 287.186 211.037 287.186C207.344 287.186 204.858 289.991 204.858 294.253C204.858 298.479 207.344 301.284 211.037 301.284ZM211.037 299.402C208.232 299.402 206.954 296.987 206.954 294.253C206.954 291.518 208.232 289.068 211.037 289.068C213.843 289.068 215.121 291.518 215.121 294.253C215.121 296.987 213.843 299.402 211.037 299.402ZM222.51 292.797C222.51 290.418 223.984 289.068 225.99 289.068C227.934 289.068 229.115 290.338 229.115 292.477V301H231.21V292.335C231.21 288.855 229.355 287.186 226.594 287.186C224.534 287.186 223.256 288.109 222.616 289.494H222.439V287.364H220.415V301H222.51V292.797ZM240.969 287.364H238.057V284.097H235.962V287.364H233.902V289.139H235.962V297.662C235.962 300.041 237.88 301.178 239.655 301.178C240.436 301.178 240.934 301.036 241.218 300.929L240.792 299.047C240.614 299.082 240.33 299.153 239.868 299.153C238.945 299.153 238.057 298.869 238.057 297.094V289.139H240.969V287.364ZM246.509 292.797C246.509 290.418 248.027 289.068 250.096 289.068C252.066 289.068 253.256 290.311 253.256 292.477V301H255.351V292.335C255.351 288.828 253.487 287.186 250.699 287.186C248.551 287.186 247.326 288.083 246.686 289.494H246.509V282.818H244.414V301H246.509V292.797Z" fill="#1A1B1C" fill-opacity="0.7"/>
<rect x="30.5" y="30.5" width="329" height="50" rx="4.5" fill="#393B3F"/>
<path d="M47.4091 61H54.5227V59.75H48.8182V55.7955H54.0682V54.5455H48.8182V50.6136H54.4318V49.3636H47.4091V61ZM58.1307 55.75C58.1307 54.2273 59.0739 53.3636 60.358 53.3636C61.6023 53.3636 62.358 54.1761 62.358 55.5455V61H63.6989V55.4545C63.6989 53.2273 62.5114 52.1591 60.7443 52.1591C59.4261 52.1591 58.608 52.75 58.1989 53.6364H58.0852V52.2727H56.7898V61H58.1307V55.75ZM69.9446 52.2727H68.081V50.1818H66.7401V52.2727H65.4219V53.4091H66.7401V58.8636C66.7401 60.3864 67.9673 61.1136 69.1037 61.1136C69.6037 61.1136 69.9219 61.0227 70.1037 60.9545L69.831 59.75C69.7173 59.7727 69.5355 59.8182 69.2401 59.8182C68.6491 59.8182 68.081 59.6364 68.081 58.5V53.4091H69.9446V52.2727ZM75.527 61.1818C77.2997 61.1818 78.5952 60.2955 79.0043 58.9773L77.7088 58.6136C77.3679 59.5227 76.5781 59.9773 75.527 59.9773C73.9531 59.9773 72.8679 58.9602 72.8054 57.0909H79.1406V56.5227C79.1406 53.2727 77.2088 52.1591 75.3906 52.1591C73.027 52.1591 71.4588 54.0227 71.4588 56.7045C71.4588 59.3864 73.0043 61.1818 75.527 61.1818ZM72.8054 55.9318C72.8963 54.5739 73.8565 53.3636 75.3906 53.3636C76.8452 53.3636 77.777 54.4545 77.777 55.9318H72.8054ZM81.1804 61H82.5213V55.4773C82.5213 54.2955 83.4531 53.4318 84.7259 53.4318C85.0838 53.4318 85.4531 53.5 85.544 53.5227V52.1591C85.3906 52.1477 85.0384 52.1364 84.8395 52.1364C83.794 52.1364 82.8849 52.7273 82.5668 53.5909H82.4759V52.2727H81.1804V61ZM92.9744 55.75C92.9744 54.2273 93.9176 53.3636 95.2017 53.3636C96.446 53.3636 97.2017 54.1761 97.2017 55.5455V61H98.5426V55.4545C98.5426 53.2273 97.3551 52.1591 95.5881 52.1591C94.2699 52.1591 93.4517 52.75 93.0426 53.6364H92.929V52.2727H91.6335V61H92.9744V55.75ZM106.493 57.4318C106.493 59.0682 105.243 59.8182 104.243 59.8182C103.129 59.8182 102.334 59 102.334 57.7273V52.2727H100.993V57.8182C100.993 60.0455 102.175 61.1136 103.811 61.1136C105.129 61.1136 105.993 60.4091 106.402 59.5227H106.493V61H107.834V52.2727H106.493V57.4318ZM110.29 61H111.631V55.5455C111.631 54.267 112.562 53.3636 113.608 53.3636C114.625 53.3636 115.335 54.0284 115.335 55.0227V61H116.699V55.3182C116.699 54.1932 117.403 53.3636 118.631 53.3636C119.585 53.3636 120.403 53.8693 120.403 55.1591V61H121.744V55.1591C121.744 53.108 120.642 52.1591 119.085 52.1591C117.835 52.1591 116.92 52.733 116.472 53.6364H116.381C115.949 52.7045 115.188 52.1591 114.04 52.1591C112.903 52.1591 112.062 52.7045 111.699 53.6364H111.585V52.2727H110.29V61ZM124.378 61H125.673V59.6591H125.832C126.128 60.1364 126.696 61.1818 128.378 61.1818C130.56 61.1818 132.082 59.4318 132.082 56.6591C132.082 53.9091 130.56 52.1591 128.355 52.1591C126.651 52.1591 126.128 53.2045 125.832 53.6591H125.719V49.3636H124.378V61ZM125.696 56.6364C125.696 54.6818 126.56 53.3636 128.196 53.3636C129.901 53.3636 130.741 54.7955 130.741 56.6364C130.741 58.5 129.878 59.9773 128.196 59.9773C126.582 59.9773 125.696 58.6136 125.696 56.6364ZM137.793 61.1818C139.565 61.1818 140.861 60.2955 141.27 58.9773L139.974 58.6136C139.634 59.5227 138.844 59.9773 137.793 59.9773C136.219 59.9773 135.134 58.9602 135.071 57.0909H141.406V56.5227C141.406 53.2727 139.474 52.1591 137.656 52.1591C135.293 52.1591 133.724 54.0227 133.724 56.7045C133.724 59.3864 135.27 61.1818 137.793 61.1818ZM135.071 55.9318C135.162 54.5739 136.122 53.3636 137.656 53.3636C139.111 53.3636 140.043 54.4545 140.043 55.9318H135.071ZM143.446 61H144.787V55.4773C144.787 54.2955 145.719 53.4318 146.991 53.4318C147.349 53.4318 147.719 53.5 147.81 53.5227V52.1591C147.656 52.1477 147.304 52.1364 147.105 52.1364C146.06 52.1364 145.151 52.7273 144.832 53.5909H144.741V52.2727H143.446V61ZM157.445 61.1818C159.808 61.1818 161.399 59.3864 161.399 56.6818C161.399 53.9545 159.808 52.1591 157.445 52.1591C155.081 52.1591 153.49 53.9545 153.49 56.6818C153.49 59.3864 155.081 61.1818 157.445 61.1818ZM157.445 59.9773C155.649 59.9773 154.831 58.4318 154.831 56.6818C154.831 54.9318 155.649 53.3636 157.445 53.3636C159.24 53.3636 160.058 54.9318 160.058 56.6818C160.058 58.4318 159.24 59.9773 157.445 59.9773ZM167.332 52.2727H165.378V51.3864C165.378 50.5227 165.741 50.0682 166.628 50.0682C167.014 50.0682 167.241 50.1591 167.378 50.2045L167.764 49.0455C167.56 48.9545 167.151 48.8182 166.491 48.8182C165.241 48.8182 164.037 49.5682 164.037 51.0682V52.2727H162.628V53.4091H164.037V61H165.378V53.4091H167.332V52.2727ZM177.598 52.2727H175.643V51.3864C175.643 50.5227 176.007 50.0682 176.893 50.0682C177.28 50.0682 177.507 50.1591 177.643 50.2045L178.03 49.0455C177.825 48.9545 177.416 48.8182 176.757 48.8182C175.507 48.8182 174.303 49.5682 174.303 51.0682V52.2727H172.893V53.4091H174.303V61H175.643V53.4091H177.598V52.2727ZM182.663 61.1818C185.027 61.1818 186.618 59.3864 186.618 56.6818C186.618 53.9545 185.027 52.1591 182.663 52.1591C180.3 52.1591 178.709 53.9545 178.709 56.6818C178.709 59.3864 180.3 61.1818 182.663 61.1818ZM182.663 59.9773C180.868 59.9773 180.05 58.4318 180.05 56.6818C180.05 54.9318 180.868 53.3636 182.663 53.3636C184.459 53.3636 185.277 54.9318 185.277 56.6818C185.277 58.4318 184.459 59.9773 182.663 59.9773ZM190.006 49.3636H188.665V61H190.006V49.3636ZM193.803 49.3636H192.462V61H193.803V49.3636ZM199.804 61.1818C202.168 61.1818 203.759 59.3864 203.759 56.6818C203.759 53.9545 202.168 52.1591 199.804 52.1591C197.44 52.1591 195.849 53.9545 195.849 56.6818C195.849 59.3864 197.44 61.1818 199.804 61.1818ZM199.804 59.9773C198.009 59.9773 197.19 58.4318 197.19 56.6818C197.19 54.9318 198.009 53.3636 199.804 53.3636C201.599 53.3636 202.418 54.9318 202.418 56.6818C202.418 58.4318 201.599 59.9773 199.804 59.9773ZM207.486 61H208.804L210.713 54.2955H210.849L212.759 61H214.077L216.736 52.2727H215.327L213.44 58.9318H213.349L211.509 52.2727H210.077L208.213 58.9545H208.122L206.236 52.2727H204.827L207.486 61ZM221.871 61.1818C223.643 61.1818 224.939 60.2955 225.348 58.9773L224.053 58.6136C223.712 59.5227 222.922 59.9773 221.871 59.9773C220.297 59.9773 219.212 58.9602 219.149 57.0909H225.484V56.5227C225.484 53.2727 223.553 52.1591 221.734 52.1591C219.371 52.1591 217.803 54.0227 217.803 56.7045C217.803 59.3864 219.348 61.1818 221.871 61.1818ZM219.149 55.9318C219.24 54.5739 220.2 53.3636 221.734 53.3636C223.189 53.3636 224.121 54.4545 224.121 55.9318H219.149ZM227.524 61H228.865V55.4773C228.865 54.2955 229.797 53.4318 231.07 53.4318C231.428 53.4318 231.797 53.5 231.888 53.5227V52.1591C231.734 52.1477 231.382 52.1364 231.183 52.1364C230.138 52.1364 229.229 52.7273 228.911 53.5909H228.82V52.2727H227.524V61ZM239.659 54.2273C239.239 52.9886 238.295 52.1591 236.568 52.1591C234.727 52.1591 233.364 53.2045 233.364 54.6818C233.364 55.8864 234.08 56.6932 235.682 57.0682L237.136 57.4091C238.017 57.6136 238.432 58.0341 238.432 58.6364C238.432 59.3864 237.636 60 236.386 60C235.29 60 234.602 59.5284 234.364 58.5909L233.091 58.9091C233.403 60.392 234.625 61.1818 236.409 61.1818C238.438 61.1818 239.818 60.0739 239.818 58.5682C239.818 57.3523 239.057 56.5852 237.5 56.2045L236.205 55.8864C235.17 55.6307 234.705 55.2841 234.705 54.6136C234.705 53.8636 235.5 53.3182 236.568 53.3182C237.739 53.3182 238.222 53.9659 238.455 54.5682L239.659 54.2273ZM245.95 48.8182H244.723L240.973 62.75H242.2L245.95 48.8182ZM253.722 54.2273C253.301 52.9886 252.358 52.1591 250.631 52.1591C248.79 52.1591 247.426 53.2045 247.426 54.6818C247.426 55.8864 248.142 56.6932 249.744 57.0682L251.199 57.4091C252.08 57.6136 252.494 58.0341 252.494 58.6364C252.494 59.3864 251.699 60 250.449 60C249.352 60 248.665 59.5284 248.426 58.5909L247.153 58.9091C247.466 60.392 248.688 61.1818 250.472 61.1818C252.5 61.1818 253.881 60.0739 253.881 58.5682C253.881 57.3523 253.119 56.5852 251.562 56.2045L250.267 55.8864C249.233 55.6307 248.767 55.2841 248.767 54.6136C248.767 53.8636 249.562 53.3182 250.631 53.3182C251.801 53.3182 252.284 53.9659 252.517 54.5682L253.722 54.2273ZM261.399 57.4318C261.399 59.0682 260.149 59.8182 259.149 59.8182C258.036 59.8182 257.24 59 257.24 57.7273V52.2727H255.899V57.8182C255.899 60.0455 257.081 61.1136 258.717 61.1136C260.036 61.1136 260.899 60.4091 261.308 59.5227H261.399V61H262.74V52.2727H261.399V57.4318ZM265.378 61H266.673V59.6591H266.832C267.128 60.1364 267.696 61.1818 269.378 61.1818C271.56 61.1818 273.082 59.4318 273.082 56.6591C273.082 53.9091 271.56 52.1591 269.355 52.1591C267.651 52.1591 267.128 53.2045 266.832 53.6591H266.719V49.3636H265.378V61ZM266.696 56.6364C266.696 54.6818 267.56 53.3636 269.196 53.3636C270.901 53.3636 271.741 54.7955 271.741 56.6364C271.741 58.5 270.878 59.9773 269.196 59.9773C267.582 59.9773 266.696 58.6136 266.696 56.6364ZM281.315 54.2273C280.895 52.9886 279.952 52.1591 278.224 52.1591C276.384 52.1591 275.02 53.2045 275.02 54.6818C275.02 55.8864 275.736 56.6932 277.338 57.0682L278.793 57.4091C279.673 57.6136 280.088 58.0341 280.088 58.6364C280.088 59.3864 279.293 60 278.043 60C276.946 60 276.259 59.5284 276.02 58.5909L274.747 58.9091C275.06 60.392 276.281 61.1818 278.065 61.1818C280.094 61.1818 281.474 60.0739 281.474 58.5682C281.474 57.3523 280.713 56.5852 279.156 56.2045L277.861 55.8864C276.827 55.6307 276.361 55.2841 276.361 54.6136C276.361 53.8636 277.156 53.3182 278.224 53.3182C279.395 53.3182 279.878 53.9659 280.111 54.5682L281.315 54.2273ZM287.038 61.1818C288.97 61.1818 290.243 60 290.47 58.4545H289.129C288.879 59.4091 288.084 59.9773 287.038 59.9773C285.447 59.9773 284.425 58.6591 284.425 56.6364C284.425 54.6591 285.47 53.3636 287.038 53.3636C288.22 53.3636 288.925 54.0909 289.129 54.8864H290.47C290.243 53.25 288.857 52.1591 287.016 52.1591C284.652 52.1591 283.084 54.0227 283.084 56.6818C283.084 59.2955 284.584 61.1818 287.038 61.1818ZM292.43 61H293.771V55.4773C293.771 54.2955 294.703 53.4318 295.976 53.4318C296.334 53.4318 296.703 53.5 296.794 53.5227V52.1591C296.641 52.1477 296.288 52.1364 296.089 52.1364C295.044 52.1364 294.135 52.7273 293.817 53.5909H293.726V52.2727H292.43V61ZM298.384 61H299.724V52.2727H298.384V61ZM299.065 50.8182C299.588 50.8182 300.02 50.4091 300.02 49.9091C300.02 49.4091 299.588 49 299.065 49C298.543 49 298.111 49.4091 298.111 49.9091C298.111 50.4091 298.543 50.8182 299.065 50.8182ZM302.362 61H303.658V59.6591H303.817C304.112 60.1364 304.68 61.1818 306.362 61.1818C308.544 61.1818 310.067 59.4318 310.067 56.6591C310.067 53.9091 308.544 52.1591 306.339 52.1591C304.635 52.1591 304.112 53.2045 303.817 53.6591H303.703V49.3636H302.362V61ZM303.68 56.6364C303.68 54.6818 304.544 53.3636 306.18 53.3636C307.885 53.3636 308.726 54.7955 308.726 56.6364C308.726 58.5 307.862 59.9773 306.18 59.9773C304.567 59.9773 303.68 58.6136 303.68 56.6364ZM315.777 61.1818C317.55 61.1818 318.845 60.2955 319.254 58.9773L317.959 58.6136C317.618 59.5227 316.828 59.9773 315.777 59.9773C314.203 59.9773 313.118 58.9602 313.055 57.0909H319.391V56.5227C319.391 53.2727 317.459 52.1591 315.641 52.1591C313.277 52.1591 311.709 54.0227 311.709 56.7045C311.709 59.3864 313.254 61.1818 315.777 61.1818ZM313.055 55.9318C313.146 54.5739 314.107 53.3636 315.641 53.3636C317.095 53.3636 318.027 54.4545 318.027 55.9318H313.055ZM321.43 61H322.771V55.4773C322.771 54.2955 323.703 53.4318 324.976 53.4318C325.334 53.4318 325.703 53.5 325.794 53.5227V52.1591C325.641 52.1477 325.288 52.1364 325.089 52.1364C324.044 52.1364 323.135 52.7273 322.817 53.5909H322.726V52.2727H321.43V61ZM333.565 54.2273C333.145 52.9886 332.202 52.1591 330.474 52.1591C328.634 52.1591 327.27 53.2045 327.27 54.6818C327.27 55.8864 327.986 56.6932 329.588 57.0682L331.043 57.4091C331.923 57.6136 332.338 58.0341 332.338 58.6364C332.338 59.3864 331.543 60 330.293 60C329.196 60 328.509 59.5284 328.27 58.5909L326.997 58.9091C327.31 60.392 328.531 61.1818 330.315 61.1818C332.344 61.1818 333.724 60.0739 333.724 58.5682C333.724 57.3523 332.963 56.5852 331.406 56.2045L330.111 55.8864C329.077 55.6307 328.611 55.2841 328.611 54.6136C328.611 53.8636 329.406 53.3182 330.474 53.3182C331.645 53.3182 332.128 53.9659 332.361 54.5682L333.565 54.2273Z" fill="#999CA0"/>
<rect x="30.5" y="30.5" width="329" height="50" rx="4.5" stroke="#393B3F"/>
<path d="M113.236 128H120.373V126.343H115.212V123.366H119.963V121.709H115.212V118.748H120.331V117.091H113.236V128ZM128.728 121.981C128.462 120.596 127.354 119.712 125.436 119.712C123.466 119.712 122.123 120.681 122.129 122.194C122.123 123.387 122.858 124.175 124.43 124.5L125.825 124.793C126.576 124.958 126.928 125.262 126.928 125.725C126.928 126.285 126.321 126.706 125.405 126.706C124.52 126.706 123.945 126.322 123.78 125.587L121.9 125.768C122.139 127.27 123.402 128.16 125.41 128.16C127.455 128.16 128.899 127.1 128.904 125.55C128.899 124.383 128.148 123.669 126.603 123.334L125.207 123.036C124.376 122.849 124.046 122.561 124.052 122.087C124.046 121.533 124.659 121.15 125.463 121.15C126.353 121.15 126.821 121.635 126.971 122.173L128.728 121.981ZM134.58 119.818H132.966V117.858H131.038V119.818H129.876V121.31H131.038V125.859C131.027 127.398 132.145 128.154 133.594 128.112C134.143 128.096 134.521 127.989 134.729 127.92L134.404 126.413C134.297 126.439 134.079 126.487 133.839 126.487C133.355 126.487 132.966 126.317 132.966 125.539V121.31H134.58V119.818ZM136.192 128H138.121V119.818H136.192V128ZM137.162 118.657C137.774 118.657 138.275 118.188 138.275 117.613C138.275 117.032 137.774 116.564 137.162 116.564C136.544 116.564 136.043 117.032 136.043 117.613C136.043 118.188 136.544 118.657 137.162 118.657ZM140.104 128H142.032V123.025C142.032 122.018 142.703 121.336 143.534 121.336C144.349 121.336 144.908 121.885 144.908 122.727V128H146.799V122.897C146.799 121.975 147.348 121.336 148.28 121.336C149.058 121.336 149.676 121.794 149.676 122.806V128H151.609V122.508C151.609 120.681 150.555 119.712 149.052 119.712C147.865 119.712 146.959 120.298 146.597 121.208H146.512C146.197 120.282 145.404 119.712 144.301 119.712C143.204 119.712 142.383 120.276 142.042 121.208H141.947V119.818H140.104V128ZM155.92 128.165C157.204 128.165 157.971 127.563 158.322 126.876H158.386V128H160.24V122.524C160.24 120.362 158.477 119.712 156.916 119.712C155.195 119.712 153.874 120.479 153.448 121.97L155.249 122.226C155.44 121.667 155.984 121.187 156.927 121.187C157.822 121.187 158.312 121.645 158.312 122.45V122.482C158.312 123.036 157.731 123.062 156.287 123.217C154.7 123.387 153.182 123.861 153.182 125.704C153.182 127.313 154.359 128.165 155.92 128.165ZM156.421 126.748C155.616 126.748 155.041 126.381 155.041 125.672C155.041 124.932 155.686 124.623 156.548 124.5C157.054 124.431 158.067 124.303 158.317 124.101V125.065C158.317 125.976 157.582 126.748 156.421 126.748ZM166.264 119.818H164.65V117.858H162.722V119.818H161.561V121.31H162.722V125.859C162.711 127.398 163.83 128.154 165.279 128.112C165.828 128.096 166.206 127.989 166.413 127.92L166.089 126.413C165.982 126.439 165.764 126.487 165.524 126.487C165.039 126.487 164.65 126.317 164.65 125.539V121.31H166.264V119.818ZM171.411 128.16C173.318 128.16 174.629 127.228 174.97 125.805L173.169 125.603C172.908 126.295 172.269 126.658 171.438 126.658C170.191 126.658 169.366 125.837 169.35 124.436H175.049V123.845C175.049 120.974 173.324 119.712 171.31 119.712C168.966 119.712 167.438 121.432 167.438 123.957C167.438 126.525 168.945 128.16 171.411 128.16ZM169.355 123.137C169.414 122.093 170.186 121.214 171.337 121.214C172.445 121.214 173.19 122.023 173.201 123.137H169.355ZM179.741 117.091L183.709 123.93V128H185.68V123.93L189.649 117.091H187.417L184.748 121.917H184.641L181.973 117.091H179.741ZM193.008 128.16C195.405 128.16 196.929 126.471 196.929 123.941C196.929 121.406 195.405 119.712 193.008 119.712C190.611 119.712 189.088 121.406 189.088 123.941C189.088 126.471 190.611 128.16 193.008 128.16ZM193.019 126.615C191.693 126.615 191.043 125.433 191.043 123.936C191.043 122.439 191.693 121.24 193.019 121.24C194.324 121.24 194.974 122.439 194.974 123.936C194.974 125.433 194.324 126.615 193.019 126.615ZM203.78 124.559C203.78 125.805 202.891 126.423 202.038 126.423C201.112 126.423 200.494 125.768 200.494 124.729V119.818H198.565V125.028C198.565 126.993 199.684 128.107 201.293 128.107C202.518 128.107 203.381 127.462 203.754 126.546H203.839V128H205.709V119.818H203.78V124.559ZM207.691 128H209.62V123.19C209.62 122.151 210.403 121.416 211.463 121.416C211.788 121.416 212.193 121.475 212.358 121.528V119.754C212.182 119.722 211.878 119.701 211.665 119.701C210.728 119.701 209.945 120.234 209.646 121.182H209.561V119.818H207.691V128ZM217.445 128H224.582V126.343H219.421V123.366H224.172V121.709H219.421V118.748H224.54V117.091H217.445V128ZM228.825 128.165C230.109 128.165 230.876 127.563 231.227 126.876H231.291V128H233.145V122.524C233.145 120.362 231.382 119.712 229.821 119.712C228.101 119.712 226.78 120.479 226.354 121.97L228.154 122.226C228.346 121.667 228.889 121.187 229.832 121.187C230.727 121.187 231.217 121.645 231.217 122.45V122.482C231.217 123.036 230.636 123.062 229.193 123.217C227.605 123.387 226.087 123.861 226.087 125.704C226.087 127.313 227.264 128.165 228.825 128.165ZM229.326 126.748C228.522 126.748 227.946 126.381 227.946 125.672C227.946 124.932 228.591 124.623 229.454 124.5C229.96 124.431 230.972 124.303 231.222 124.101V125.065C231.222 125.976 230.487 126.748 229.326 126.748ZM235.084 128H237.012V123.19C237.012 122.151 237.795 121.416 238.855 121.416C239.18 121.416 239.585 121.475 239.75 121.528V119.754C239.574 119.722 239.271 119.701 239.058 119.701C238.12 119.701 237.337 120.234 237.039 121.182H236.954V119.818H235.084V128ZM242.96 123.206C242.96 122.023 243.673 121.342 244.691 121.342C245.687 121.342 246.283 121.997 246.283 123.089V128H248.212V122.79C248.217 120.83 247.098 119.712 245.41 119.712C244.185 119.712 243.343 120.298 242.97 121.208H242.874V119.818H241.031V128H242.96V123.206ZM250.172 128H252.1V119.818H250.172V128ZM251.141 118.657C251.754 118.657 252.255 118.188 252.255 117.613C252.255 117.032 251.754 116.564 251.141 116.564C250.523 116.564 250.023 117.032 250.023 117.613C250.023 118.188 250.523 118.657 251.141 118.657ZM256.011 123.206C256.011 122.023 256.725 121.342 257.742 121.342C258.739 121.342 259.335 121.997 259.335 123.089V128H261.263V122.79C261.269 120.83 260.15 119.712 258.462 119.712C257.236 119.712 256.395 120.298 256.022 121.208H255.926V119.818H254.083V128H256.011V123.206ZM266.782 131.239C268.992 131.239 270.622 130.227 270.622 128.133V119.818H268.721V121.171H268.614C268.321 120.58 267.709 119.712 266.265 119.712C264.374 119.712 262.888 121.192 262.888 123.882C262.888 126.551 264.374 127.883 266.26 127.883C267.661 127.883 268.316 127.132 268.614 126.53H268.71V128.08C268.71 129.284 267.911 129.779 266.814 129.779C265.653 129.779 265.141 129.23 264.907 128.751L263.17 129.172C263.522 130.317 264.699 131.239 266.782 131.239ZM266.798 126.37C265.525 126.37 264.854 125.379 264.854 123.872C264.854 122.386 265.514 121.294 266.798 121.294C268.039 121.294 268.721 122.322 268.721 123.872C268.721 125.433 268.028 126.37 266.798 126.37ZM279.065 121.981C278.799 120.596 277.691 119.712 275.773 119.712C273.803 119.712 272.46 120.681 272.466 122.194C272.46 123.387 273.195 124.175 274.767 124.5L276.162 124.793C276.913 124.958 277.265 125.262 277.265 125.725C277.265 126.285 276.658 126.706 275.741 126.706C274.857 126.706 274.282 126.322 274.117 125.587L272.236 125.768C272.476 127.27 273.739 128.16 275.747 128.16C277.792 128.16 279.236 127.1 279.241 125.55C279.236 124.383 278.485 123.669 276.94 123.334L275.544 123.036C274.713 122.849 274.383 122.561 274.388 122.087C274.383 121.533 274.996 121.15 275.8 121.15C276.69 121.15 277.158 121.635 277.307 122.173L279.065 121.981Z" fill="#4CC9F0"/>
<rect x="31.75" y="101.75" width="328.5" height="42.5" rx="2.25" stroke="#4CC9F0" stroke-width="1.5"/>
<defs>
<linearGradient id="paint0_linear_179_1118" x1="196" y1="234.98" x2="196" y2="75.3987" gradientUnits="userSpaceOnUse">
<stop stop-color="#5A27E7"/>
<stop offset="1" stop-color="#101011"/>
</linearGradient>
</defs>
</svg>
